<svg version="1.2" xmlns="http://www.w3.org/2000/svg" viewBox="0 0 25 24" width="25" height="24">
	<title>discord-svg</title>
	<style>
		.s0 { fill: #ffffff } 
	</style>
	<path id="Layer" fill-rule="evenodd" class="s0" d="m23 2.5v21.5c-3-2.7-2.1-1.8-5.6-5.1l0.7 2.3h-13.6c-1.4 0-2.5-1.1-2.5-2.5q0 0 0 0c0 0 0-16.2 0-16.2c0-1.4 1.1-2.5 2.5-2.5h16c1.4 0 2.5 1.1 2.5 2.5q0 0 0 0zm-3.4 11.3c-0.1-2.5-0.7-4.9-1.8-7l0.1 0.1c-1-0.8-2.1-1.2-3.4-1.3l-0.2 0.2q1.7 0.5 3 1.5c-1.4-0.8-3.1-1.2-4.8-1.2c-1.5 0-3 0.3-4.2 0.9c-0.4 0.2-0.7 0.3-0.7 0.3c0.9-0.7 2-1.3 3.1-1.6h0.1l-0.1-0.1c-1.3 0.1-2.5 0.5-3.4 1.3c-1.1 2-1.7 4.4-1.7 6.9c0.8 1.2 2.1 1.9 3.5 1.9q0.1 0 0.1 0c0 0 0.5-0.6 0.8-1c-0.8-0.2-1.6-0.8-2.1-1.4c0.2 0.1 0.5 0.2 0.5 0.3c1.2 0.6 2.7 1 4.2 1c1.2 0 2.3-0.2 3.4-0.6h-0.1q0.8-0.3 1.4-0.7c-0.5 0.7-1.3 1.2-2.2 1.4c0.4 0.5 0.8 1 0.8 1q0.1 0 0.1 0c1.5 0 2.8-0.7 3.6-1.8q0 0 0-0.1zm-2.3-0.5q0 0 0 0q0 0 0 0zm-1.4-1.9c0 0.6-0.6 1.1-1.2 1.1c-0.7 0-1.2-0.5-1.2-1.2c0-0.7 0.5-1.2 1.2-1.2c0.7 0 1.2 0.6 1.2 1.2q0 0.1 0 0.1q0 0 0 0zm0 0q0 0 0 0q0 0 0 0zm-5.6-1.3c0.7 0 1.3 0.6 1.3 1.2q0 0.1 0 0.1q0 0 0 0.1c0 0.6-0.6 1.2-1.3 1.2c-0.7 0-1.2-0.6-1.2-1.3c0-0.7 0.5-1.3 1.2-1.3q0 0 0 0zm1.3 1.3q0 0 0 0q0 0 0 0z"/>
</svg>